<?xml version="1.0" standalone="no"?>
<!DOCTYPE svg PUBLIC "-//W3C//DTD SVG 20010904//EN"
 "http://www.w3.org/TR/2001/REC-SVG-20010904/DTD/svg10.dtd">
<svg version="1.0" xmlns="http://www.w3.org/2000/svg"
 width="200.000000pt" height="200.000000pt" viewBox="0 0 200.000000 200.000000"
 preserveAspectRatio="xMidYMid meet">
<metadata>
Created by potrace 1.14, written by Peter Selinger 2001-2017
</metadata>
<g transform="translate(0.000000,200.000000) scale(0.100000,-0.100000)"
fill="#000000" stroke="none">
<path d="M828 1952 c-5 -13 -120 -44 -156 -43 -19 1 -41 5 -50 10 -9 5 -43 12
-74 16 -69 9 -76 -4 -27 -56 22 -23 27 -35 18 -37 -8 -3 -23 -12 -34 -22 -11
-9 -42 -25 -68 -34 -48 -18 -87 -50 -87 -71 0 -5 -24 -21 -52 -34 -209 -95
-250 -144 -197 -238 22 -39 22 -46 -7 -157 -14 -52 -23 -71 -41 -79 -26 -12
-28 -19 -12 -49 6 -12 13 -82 14 -157 2 -77 10 -164 19 -201 14 -61 14 -69 -6
-142 -13 -47 -18 -87 -14 -104 10 -37 79 -101 170 -154 42 -25 76 -48 76 -52
0 -13 224 -175 285 -205 33 -17 110 -43 170 -58 61 -15 114 -32 120 -36 11
-11 262 -12 267 -1 2 4 46 18 98 31 52 13 124 35 159 48 62 23 65 23 107 7 31
-12 59 -15 95 -11 58 7 72 16 108 72 22 34 26 51 26 115 0 68 3 79 32 122 18
25 39 53 47 61 23 23 72 128 94 202 41 142 47 180 46 305 -1 120 -9 169 -49
318 -18 68 -72 182 -86 182 -5 0 -9 6 -9 13 0 10 -100 143 -127 170 -32 30
-147 117 -163 122 -11 3 -20 10 -20 15 0 20 -255 120 -306 120 -8 0 -14 5 -14
10 0 12 -347 14 -352 2z"/>
</g>
</svg>
